<?xml version="1.0" standalone="no"?><svg xmlns="http://www.w3.org/2000/svg" viewBox="0 0 1440 320"><path fill="#ff6b6b" fill-opacity="1" d="M0,0L11.4,26.7C22.9,53,46,107,69,117.3C91.4,128,114,96,137,74.7C160,53,183,43,206,37.3C228.6,32,251,32,274,37.3C297.1,43,320,53,343,90.7C365.7,128,389,192,411,213.3C434.3,235,457,213,480,176C502.9,139,526,85,549,85.3C571.4,85,594,139,617,138.7C640,139,663,85,686,80C708.6,75,731,117,754,117.3C777.1,117,800,75,823,58.7C845.7,43,869,53,891,90.7C914.3,128,937,192,960,186.7C982.9,181,1006,107,1029,69.3C1051.4,32,1074,32,1097,53.3C1120,75,1143,117,1166,122.7C1188.6,128,1211,96,1234,80C1257.1,64,1280,64,1303,96C1325.7,128,1349,192,1371,181.3C1394.3,171,1417,85,1429,42.7L1440,0L1440,0L1428.6,0C1417.1,0,1394,0,1371,0C1348.6,0,1326,0,1303,0C1280,0,1257,0,1234,0C1211.4,0,1189,0,1166,0C1142.9,0,1120,0,1097,0C1074.3,0,1051,0,1029,0C1005.7,0,983,0,960,0C937.1,0,914,0,891,0C868.6,0,846,0,823,0C800,0,777,0,754,0C731.4,0,709,0,686,0C662.9,0,640,0,617,0C594.3,0,571,0,549,0C525.7,0,503,0,480,0C457.1,0,434,0,411,0C388.6,0,366,0,343,0C320,0,297,0,274,0C251.4,0,229,0,206,0C182.9,0,160,0,137,0C114.3,0,91,0,69,0C45.7,0,23,0,11,0L0,0Z"></path></svg>